
<svg width="145px" height="145px" viewBox="0 0 145 145" version="1.1" xmlns="http://www.w3.org/2000/svg" xmlns:xlink="http://www.w3.org/1999/xlink">
    <!-- Generator: Sketch 43.1 (39012) - http://www.bohemiancoding.com/sketch -->
    <desc>Created with Sketch.</desc>
    <defs></defs>
    <g id="Page-1" stroke="none" stroke-width="1" fill="none" fill-rule="evenodd">
        <g id="Artboard" fill="#007BFF">
            <path d="M0,20.0093926 C0,8.95851022 8.9609737,0 20.0093926,0 L124.990607,0 C136.04149,0 145,8.9609737 145,20.0093926 L145,124.990607 C145,136.04149 136.039026,145 124.990607,145 L20.0093926,145 C8.95851022,145 0,136.039026 0,124.990607 L0,20.0093926 Z M56.26,71.516 L56.26,46.592 L77.588,46.592 C82.0520223,46.592 85.3999888,47.5633236 87.632,49.506 C89.8640112,51.4486764 90.98,54.5693118 90.98,58.868 C90.98,63.3320223 89.8640112,66.5559901 87.632,68.54 C85.3999888,70.5240099 82.0520223,71.516 77.588,71.516 L56.26,71.516 Z M36.792,31.464 L36.792,120 L56.26,120 L56.26,85.404 L75.728,85.404 C80.6053577,85.404 84.1186559,86.4786559 86.268,88.628 C88.4173441,90.7773441 89.8226634,94.1666435 90.484,98.796 C90.9800025,102.350684 91.3519988,106.070647 91.6,109.956 C91.8480012,113.841353 92.509328,117.189319 93.584,120 L113.052,120 C112.142662,118.759994 111.460669,117.251342 111.006,115.474 C110.551331,113.696658 110.220668,111.81601 110.014,109.832 C109.807332,107.84799 109.662667,105.905343 109.58,104.004 C109.497333,102.102657 109.414667,100.44934 109.332,99.044 C109.166666,96.8119888 108.856669,94.5800112 108.402,92.348 C107.947331,90.1159888 107.224005,88.0700093 106.232,86.21 C105.239995,84.3499907 103.958675,82.7380068 102.388,81.374 C100.817325,80.0099932 98.8333453,78.9973366 96.436,78.336 L96.436,78.088 C101.396025,76.1039901 104.971322,73.2106857 107.162,69.408 C109.352678,65.6053143 110.448,61.100026 110.448,55.892 C110.448,52.5026497 109.848673,49.3406813 108.65,46.406 C107.451327,43.4713187 105.715345,40.8880112 103.442,38.656 C101.168655,36.4239888 98.4406826,34.6673397 95.258,33.386 C92.0753174,32.1046603 88.5000198,31.464 84.532,31.464 L36.792,31.464 Z" id="Combined-Shape"></path>
        </g>
    </g>
</svg>