<?xml version="1.0" encoding="iso-8859-1"?>
<!-- Generator: Adobe Illustrator 19.0.0, SVG Export Plug-In . SVG Version: 6.00 Build 0)  -->
<svg version="1.1" id="Capa_1" xmlns="http://www.w3.org/2000/svg" xmlns:xlink="http://www.w3.org/1999/xlink" x="0px" y="0px" viewBox="0 0 512 512" style="enable-background:new 0 0 512 512;" xml:space="preserve">
	<linearGradient id="SVGID_1_" gradientUnits="userSpaceOnUse" x1="0" y1="258.0001" x2="512.0001" y2="258.0001" gradientTransform="matrix(1 0 0 -1 0 514.0001)">
		<stop offset="0" style="stop-color:#80D8FF" />
		<stop offset="1" style="stop-color:#EA80FC" />
	</linearGradient>
	<path style="fill:url(#SVGID_1_);" d="M510.066,285.419l-76-160C430.753,118.444,423.722,114,416,114h-60V58
	c0-11.046-8.954-20-20-20H176c-11.046,0-20,8.954-20,20v56H96c-7.721,0-14.753,4.444-18.065,11.419l-76,160
	c-2.58,5.43-2.58,11.732,0,17.162l76,160C81.247,469.556,88.279,474,96,474h320c7.722,0,14.753-4.444,18.065-11.419l76-160
	C512.645,297.151,512.645,290.849,510.066,285.419z M196,78h120v36H196V78z M403.359,434H108.642l-66.5-140l66.5-140H176h160h67.358
	l66.5,140L403.359,434z M276,244v100c0,11.046-8.954,20-20,20s-20-8.954-20-20V244c0-11.046,8.954-20,20-20
	C267.046,224,276,232.954,276,244z M186,244v100c0,11.046-8.954,20-20,20s-20-8.954-20-20V244c0-11.046,8.954-20,20-20
	S186,232.954,186,244z M366,244v100c0,11.046-8.954,20-20,20s-20-8.954-20-20V244c0-11.046,8.954-20,20-20S366,232.954,366,244z" />
	<g>
	</g>
	<g>
	</g>
	<g>
	</g>
	<g>
	</g>
	<g>
	</g>
	<g>
	</g>
	<g>
	</g>
	<g>
	</g>
	<g>
	</g>
	<g>
	</g>
	<g>
	</g>
	<g>
	</g>
	<g>
	</g>
	<g>
	</g>
	<g>
	</g>
</svg>